P2
120 92
255
213 214 213 214 215 216 216 216 215 215 216 216 217 217 217 217 216 
216 217 217 217 217 218 217 217 217 217 217 217 218 219 219 219 
219 219 219 219 218 217 218 218 219 219 218 219 219 218 218 217 
216 216 214 214 213 212 210 206 202 199 196 191 183 176 164 157 
155 152 150 136 120 113 99 84 79 70 68 67 63 64 64 61 
62 69 61 61 61 57 77 109 138 151 136 163 178 183 179 178 
176 173 167 165 162 158 157 157 157 156 155 154 155 155 155 154 
152 150 145 140 132 121 104 212 214 213 214 215 216 215 216 215 215 215 216 216 216 217 216 216 
216 216 216 217 217 217 216 217 217 217 217 217 218 219 219 219 
219 219 219 219 217 216 216 218 219 219 218 218 217 217 216 216 
215 213 213 212 211 209 205 202 198 194 189 183 174 163 151 143 
133 126 117 99 86 83 76 60 59 62 67 62 73 76 76 68 
57 54 52 68 71 62 82 76 80 84 116 114 154 176 176 177 
173 172 167 168 163 159 157 157 158 156 156 155 155 155 155 154 
153 150 147 142 135 125 109 211 212 213 214 214 215 214 215 215 215 215 215 215 215 215 216 216 
216 216 216 216 217 217 217 217 217 217 217 217 218 218 218 219 
219 218 218 218 217 217 217 218 218 217 217 216 217 216 214 213 
211 210 208 208 207 204 201 197 190 183 175 166 155 137 116 98 
95 93 98 96 90 88 81 72 65 59 64 58 60 60 51 51 
52 53 45 41 49 64 77 72 77 76 69 68 79 129 176 172 
172 171 166 164 161 158 160 158 158 158 157 156 155 155 155 154 
153 151 149 144 139 129 114 211 212 213 213 214 214 214 214 214 214 214 214 215 214 215 215 216 
216 216 216 217 217 217 217 217 217 217 217 217 218 218 218 217 
217 217 217 218 218 218 217 217 217 215 216 215 214 213 212 210 
208 204 202 200 200 195 191 183 174 161 149 139 132 116 96 82 
81 91 94 90 84 74 70 73 79 73 80 81 72 67 68 80 
72 71 66 70 76 68 57 48 64 70 47 46 80 82 128 163 
169 169 166 163 161 159 160 158 158 158 157 156 156 155 155 155 
154 153 150 147 141 132 119 211 212 212 213 213 214 213 213 214 214 213 214 214 214 214 215 216 
216 216 216 217 216 217 217 217 217 217 218 218 218 218 218 217 
217 217 217 217 217 216 216 216 216 215 214 212 210 210 210 208 
204 199 193 189 183 175 169 162 152 140 130 116 110 108 102 96 
88 82 75 76 88 80 79 85 88 74 69 70 79 91 84 82 
74 67 66 70 82 82 81 77 72 60 53 62 55 58 71 99 
134 166 162 160 159 159 157 158 158 156 158 158 157 156 156 156 
155 153 151 148 143 134 122 211 212 212 212 213 213 214 213 213 214 213 213 213 214 215 215 216 
216 216 216 216 217 216 216 216 216 217 217 218 218 218 218 218 
218 218 217 217 216 216 216 214 213 211 208 206 204 204 204 202 
196 186 178 172 164 154 142 128 120 114 104 92 83 92 96 77 
60 59 60 63 71 65 61 67 78 71 67 85 90 100 102 85 
75 82 99 93 79 68 70 65 60 70 68 50 49 62 64 72 
67 105 154 154 152 155 154 157 156 155 157 158 156 155 155 155 
155 153 152 150 144 136 124 212 212 213 213 213 213 213 213 213 214 214 213 213 214 215 214 215 
215 216 216 216 216 216 216 216 216 216 216 216 216 216 218 218 
217 217 216 216 215 215 213 212 211 208 205 201 198 197 194 186 
174 162 153 144 135 120 104 89 81 79 77 74 66 64 68 60 
68 72 67 71 77 73 71 80 91 79 81 101 101 97 98 106 
117 116 118 127 119 109 96 73 62 57 51 52 55 47 51 52 
61 74 86 121 143 152 154 156 156 155 157 158 157 156 156 155 
155 153 152 149 145 137 127 211 212 213 213 212 212 213 213 213 213 213 214 214 214 215 214 215 
215 215 215 215 215 215 215 215 216 215 215 215 215 216 216 216 
216 216 215 213 212 211 210 207 206 203 200 194 188 182 170 155 
144 137 130 117 107 94 78 74 72 65 58 55 58 60 52 41 
46 50 53 58 71 78 85 89 92 90 94 105 120 135 148 154 
154 148 150 159 156 148 131 123 106 87 75 76 75 70 65 69 
60 71 75 112 147 154 155 155 156 155 156 158 158 157 157 155 
155 153 152 150 146 140 131 210 211 211 212 213 213 212 213 213 213 212 213 213 213 214 214 214 
214 214 214 214 215 215 215 215 215 214 214 214 214 215 215 215 
213 212 210 209 208 206 204 203 198 193 187 177 162 150 138 126 
121 116 111 102 87 81 74 72 67 62 61 60 57 51 41 37 
43 59 59 50 63 84 88 93 109 124 143 160 173 175 174 166 
166 170 168 164 163 157 152 137 124 116 110 107 105 98 83 70 
61 67 82 110 139 154 156 155 156 154 154 157 158 158 157 156 
155 154 153 151 147 142 134 210 210 210 211 211 212 212 212 212 212 212 212 213 213 213 214 213 
213 214 214 214 214 215 214 214 214 214 214 213 212 212 210 209 
208 207 206 205 203 200 197 192 185 175 164 147 132 123 110 101 
101 94 88 92 87 76 70 62 57 63 62 65 49 40 41 52 
70 69 64 78 102 121 125 131 147 165 176 183 181 184 183 177 
184 186 180 176 165 165 162 156 143 134 125 122 117 107 109 100 
75 64 70 72 129 152 157 156 157 155 156 157 158 157 158 156 
156 155 154 152 149 145 137 210 210 210 211 211 212 212 212 212 212 212 212 212 212 212 212 212 
212 213 213 213 213 213 213 213 213 213 212 210 210 208 205 203 
202 201 199 198 195 189 182 174 162 146 123 104 106 108 100 90 
83 69 63 60 63 67 58 50 51 66 71 67 49 47 65 76 
74 83 103 116 127 134 141 150 163 175 184 186 186 190 187 189 
190 187 186 178 174 176 175 170 168 159 150 143 136 129 123 113 
92 76 68 65 81 141 155 155 157 157 157 157 158 159 159 158 
157 156 155 153 151 147 139 210 210 210 211 211 211 211 211 210 211 211 211 211 211 210 211 211 
211 211 211 212 211 211 212 212 212 210 209 207 205 202 198 194 
191 189 185 182 181 172 156 141 125 116 104 92 92 91 87 76 
68 65 59 51 48 55 49 48 59 71 77 66 59 74 96 90 
93 113 125 131 136 142 157 163 171 183 192 187 190 190 187 188 
186 187 190 184 183 179 178 174 178 168 170 162 152 138 129 126 
116 96 81 78 75 94 145 150 155 158 158 158 158 159 160 159 
158 156 155 154 151 148 141 209 209 210 210 210 210 211 210 210 210 210 210 210 209 209 209 209 
209 209 210 210 209 209 209 208 207 206 204 200 196 191 185 180 
175 168 158 146 141 131 115 98 89 88 85 82 78 72 73 67 
72 66 55 50 49 51 51 53 64 73 70 62 63 78 100 108 
119 132 140 148 154 156 164 164 172 185 186 185 189 184 186 186 
189 186 184 182 178 176 176 180 181 179 174 169 162 153 143 143 
131 103 90 91 77 70 118 153 153 155 158 157 157 159 158 158 
158 156 155 154 152 148 142 209 209 209 209 209 209 209 210 209 209 209 209 209 208 209 208 208 
208 208 207 207 207 205 205 205 204 200 194 188 180 172 163 153 
149 140 125 107 91 88 82 71 67 72 72 74 77 85 83 75 
70 61 54 59 56 55 52 58 69 71 64 69 85 106 119 128 
134 139 149 156 161 164 169 169 172 182 175 174 176 181 184 182 
183 182 180 177 171 173 174 176 170 170 166 171 168 166 155 150 
147 143 125 113 97 83 80 137 154 156 157 157 157 158 159 158 
158 157 156 155 153 149 143 208 209 209 208 208 208 208 207 207 207 208 208 207 207 206 206 205 
206 205 205 204 203 199 199 199 195 189 182 172 161 147 130 122 
121 116 99 85 82 80 71 65 60 68 77 84 90 89 75 59 
55 53 63 72 66 54 51 64 78 85 91 101 114 122 126 133 
143 149 156 159 166 166 170 174 174 174 174 178 180 182 182 178 
180 179 175 166 170 175 170 167 166 165 163 168 169 163 158 158 
154 151 140 123 108 103 94 95 132 156 157 157 157 158 158 158 
158 157 156 156 153 150 144 207 207 207 208 207 206 206 205 205 205 205 205 205 204 204 204 204 
203 204 203 202 198 190 186 184 181 174 163 151 136 119 107 103 
100 89 74 71 73 68 60 54 55 63 72 85 85 74 52 39 
44 51 63 68 63 61 63 72 94 107 113 122 130 130 134 139 
148 154 156 162 168 164 175 178 177 175 178 177 174 172 169 172 
173 169 165 167 167 168 165 164 162 164 160 160 165 161 158 160 
151 150 148 142 127 117 119 103 107 133 156 156 157 157 158 158 
158 158 157 155 154 151 146 206 207 207 207 206 205 205 204 204 204 203 203 202 201 200 201 202 
201 201 199 196 187 176 171 168 164 158 140 118 107 101 99 92 
82 69 60 57 56 55 51 49 51 51 53 61 63 56 43 36 
42 45 52 64 67 71 78 87 107 118 120 127 133 132 138 141 
150 154 157 164 164 164 164 166 168 167 168 165 164 163 165 165 
160 159 163 164 165 165 163 162 160 162 158 157 160 158 155 155 
149 147 148 140 130 111 110 117 112 118 151 157 157 157 156 157 
158 158 157 155 154 151 146 207 206 206 206 206 204 204 203 202 201 200 199 198 197 196 196 196 
195 194 191 186 172 159 156 155 152 139 114 89 85 91 90 81 
68 59 55 55 53 51 48 58 57 50 47 49 47 51 49 42 
44 56 71 79 84 96 101 107 118 121 122 125 133 131 136 137 
140 143 148 154 158 161 166 161 156 157 155 153 153 154 155 155 
155 156 155 153 157 158 157 158 157 156 151 153 157 153 150 151 
150 146 143 136 134 126 115 105 102 119 139 156 156 156 156 156 
157 157 157 155 154 151 147 205 205 204 204 204 204 202 200 199 198 197 196 195 193 192 193 191 
189 185 178 170 154 143 141 144 135 116 90 80 85 86 81 74 
64 58 53 51 51 49 53 58 54 51 51 46 52 62 59 65 
76 88 101 102 101 109 111 114 119 122 123 125 128 127 135 136 
135 136 135 144 149 151 153 152 154 150 145 146 145 144 143 143 
144 149 148 149 145 148 149 148 147 147 148 149 148 146 146 146 
146 141 140 137 135 126 117 117 123 109 127 152 154 156 157 157 
156 156 156 155 154 152 148 204 204 204 203 202 201 201 199 197 194 193 192 190 188 188 188 186 
180 172 161 151 135 125 129 130 114 92 78 83 84 78 73 75 
68 62 54 49 54 54 51 55 56 59 56 51 55 58 64 80 
97 103 107 108 105 104 104 105 110 115 122 124 124 126 132 128 
121 122 128 136 135 139 136 134 134 136 136 133 134 136 136 135 
136 143 139 136 139 140 140 138 137 139 144 144 140 139 142 145 
140 139 135 133 132 125 122 118 122 119 118 147 154 155 156 157 
156 155 155 155 153 151 148 203 203 202 202 201 200 199 196 193 190 189 187 185 183 184 184 177 
170 160 148 132 110 103 109 108 95 75 74 80 79 71 67 67 
64 59 60 58 68 63 56 59 62 60 53 51 57 65 80 95 
102 103 104 104 100 99 99 99 102 105 105 107 110 113 114 108 
108 112 117 120 120 119 118 123 124 126 126 129 131 130 132 129 
132 135 132 131 133 132 133 131 133 133 134 132 133 136 139 138 
138 136 131 130 128 125 123 120 118 123 124 141 152 152 154 156 
156 155 155 155 153 151 148 202 201 200 199 199 198 196 193 190 187 186 183 179 176 174 173 166 
157 147 138 116 91 83 90 90 78 67 71 76 72 65 63 65 
65 64 62 72 75 69 71 73 64 57 56 65 80 94 101 102 
101 100 99 96 91 90 91 88 93 96 100 104 102 100 101 104 
108 106 104 104 113 116 110 106 106 109 111 117 124 128 129 123 
119 118 117 122 123 122 123 126 127 127 127 127 129 132 130 132 
131 130 124 126 127 124 124 121 121 126 133 138 150 151 151 154 
155 156 156 155 153 151 148 199 200 199 198 196 195 193 189 187 185 182 177 172 167 157 157 155 
148 135 128 108 86 77 84 82 68 62 67 71 65 58 59 64 
64 60 63 68 70 69 69 68 70 77 86 96 100 101 100 95 
92 92 92 88 84 84 82 82 84 87 95 99 98 100 101 105 
108 107 103 102 101 100 103 103 104 108 111 111 118 118 119 115 
116 116 113 112 111 112 114 118 120 118 120 121 121 121 122 125 
124 124 119 120 123 123 124 122 123 126 135 137 147 150 150 151 
153 155 156 156 153 151 149 199 200 199 198 196 194 191 188 186 181 177 172 164 158 143 141 141 
136 123 116 97 79 80 83 80 66 64 71 68 58 55 58 63 
62 59 60 60 60 66 74 83 89 97 101 101 102 96 92 86 
84 82 81 79 75 75 75 74 76 76 81 88 90 91 91 94 
90 89 94 86 88 91 97 97 99 95 95 98 101 102 104 109 
113 115 114 108 111 111 108 112 113 115 118 120 118 118 118 115 
115 117 113 115 118 118 120 122 123 127 133 135 145 148 148 150 
151 153 156 156 153 151 149 200 199 198 197 195 192 188 186 182 177 172 166 161 150 135 128 127 
123 112 100 81 71 79 84 76 69 71 71 62 52 55 65 70 
63 60 65 73 81 88 94 98 98 100 102 98 96 88 81 79 
82 81 77 75 72 69 67 67 67 64 79 76 78 74 71 73 
74 74 78 77 83 83 91 92 91 88 91 95 95 97 98 102 
102 104 104 103 107 110 110 108 107 111 118 116 116 117 115 112 
112 109 108 112 112 112 115 121 123 128 135 137 146 146 148 150 
150 152 155 155 153 151 150 200 200 198 196 195 191 187 183 178 173 166 162 157 143 129 120 117 
113 104 89 71 70 80 83 74 72 72 70 61 56 64 72 74 
74 78 87 94 94 95 98 97 97 97 95 88 84 80 79 78 
78 76 72 69 69 67 65 62 58 53 69 72 72 72 68 67 
61 68 68 69 67 67 72 65 69 78 79 78 82 86 88 91 
94 97 98 102 103 105 107 105 106 108 110 108 108 111 112 111 
110 105 104 108 111 112 114 119 124 129 135 139 146 147 150 151 
152 153 155 155 153 152 150 199 197 196 195 192 189 186 181 175 168 163 158 150 134 123 114 115 
111 101 84 68 72 80 80 76 68 69 70 66 64 74 84 88 
93 98 101 100 98 96 94 93 90 90 87 80 77 75 73 74 
73 70 67 64 62 56 55 51 48 41 55 55 55 55 56 53 
48 56 56 60 48 61 60 50 64 71 72 63 72 76 80 83 
89 92 96 97 100 103 104 105 104 104 103 102 102 104 107 108 
105 104 104 107 109 111 113 120 126 132 136 141 147 149 151 152 
152 154 155 155 154 152 150 197 195 193 192 190 187 183 178 174 166 159 154 145 131 123 113 116 
112 98 83 71 75 80 77 72 69 69 70 69 75 87 94 98 
101 101 102 100 96 92 89 89 85 81 79 75 73 71 68 67 
65 61 57 52 49 40 38 36 38 37 37 37 37 37 37 37 
37 40 37 36 37 40 39 38 41 51 50 55 67 67 68 78 
80 83 88 91 94 95 96 98 100 100 100 101 101 100 101 102 
101 101 101 101 105 110 113 120 125 132 138 143 147 151 152 152 
153 154 155 155 154 152 150 196 195 193 190 189 186 181 176 171 164 155 148 142 130 122 112 115 
109 97 85 78 81 81 77 74 79 83 82 83 90 98 101 101 
101 100 99 96 93 88 85 83 79 75 72 71 68 64 62 56 
46 38 38 37 37 37 36 36 47 47 88 74 81 87 96 65 
73 81 84 58 63 51 47 48 40 41 39 37 37 41 55 65 
69 75 79 83 87 90 92 97 96 97 97 98 97 97 99 99 
100 100 100 101 104 109 113 119 124 132 139 143 147 150 152 152 
153 154 155 155 154 153 150 195 194 192 190 188 185 180 176 170 163 153 147 140 129 119 110 112 
109 101 92 88 88 87 85 86 93 99 101 101 101 103 104 103 
100 97 97 93 89 83 82 77 74 70 66 63 56 42 41 37 
37 37 38 41 52 52 78 48 54 48 106 112 121 108 86 64 
79 109 76 85 85 59 69 97 90 66 63 61 39 38 36 39 
49 63 70 77 82 87 89 93 93 94 95 95 95 96 97 96 
97 99 99 101 104 109 112 120 124 131 137 141 146 151 153 153 
153 154 153 154 153 152 151 194 193 191 189 186 182 178 174 169 161 152 145 137 127 117 109 110 
108 104 101 100 102 102 101 102 104 104 105 106 105 105 103 102 
98 95 91 87 83 79 77 70 67 64 54 37 37 37 37 37 
37 42 48 56 84 53 65 41 40 38 69 70 88 79 52 49 
79 82 56 84 60 46 75 87 92 71 94 79 60 71 59 41 
37 37 49 67 71 79 82 86 88 90 93 94 95 94 95 95 
95 98 100 100 104 109 113 120 126 131 137 140 146 151 153 154 
154 154 153 153 153 153 152 194 192 190 189 185 180 177 173 166 158 151 144 131 124 119 115 113 
111 106 109 112 112 111 108 105 104 106 107 108 107 106 103 102 
99 93 86 82 78 75 71 61 53 40 37 37 38 37 37 40 
42 49 37 44 41 37 37 37 37 38 37 39 40 37 37 39 
49 40 45 44 38 40 61 74 54 70 80 50 74 99 91 77 
58 40 37 45 61 73 76 80 83 86 88 91 91 90 93 95 
96 98 101 103 107 112 115 120 127 132 137 141 146 151 153 155 
155 155 154 153 154 154 153 193 190 190 188 185 181 177 172 165 156 150 142 127 124 124 121 119 
117 115 117 117 117 112 108 106 108 109 110 110 110 107 104 101 
97 89 82 78 72 69 61 45 39 37 37 40 38 37 41 42 
41 37 37 38 37 37 37 37 37 37 37 37 37 37 37 37 
38 37 37 37 37 37 43 44 43 61 42 43 80 90 96 91 
68 60 44 36 38 58 70 76 79 84 86 88 91 90 90 96 
96 99 101 103 107 112 117 121 128 134 139 142 146 150 151 154 
157 156 155 154 155 155 154 193 191 190 188 185 180 177 171 163 156 150 142 130 127 128 128 126 
125 122 119 117 116 114 113 113 113 113 112 111 109 105 103 101 
96 88 83 76 66 50 39 41 40 40 40 36 38 37 37 37 
38 37 37 38 38 37 37 38 37 37 37 37 37 37 37 37 
37 37 37 37 37 37 37 39 37 39 37 47 65 70 80 71 
61 75 47 45 38 40 57 67 69 81 83 85 90 91 90 93 
98 100 103 105 110 115 119 125 131 136 140 144 147 149 151 154 
156 157 156 156 156 156 156 192 191 190 187 184 179 175 169 161 155 150 144 137 135 135 134 132 
130 126 122 119 118 117 116 115 115 114 113 111 110 106 104 100 
94 89 80 68 52 38 40 40 41 38 37 41 40 37 37 37 
37 37 40 41 39 37 37 37 37 39 37 37 37 37 37 37 
37 37 37 38 37 39 38 40 38 39 40 37 38 36 41 40 
61 59 48 65 58 51 47 50 64 77 81 83 88 91 91 95 
99 104 108 112 115 119 124 129 136 140 143 148 150 151 152 155 
157 157 156 157 156 156 156 191 190 189 186 181 178 174 168 160 155 150 145 141 139 137 136 132 
129 126 123 120 119 117 115 115 115 115 114 112 110 106 102 97 
92 83 73 57 42 37 36 39 40 41 39 37 37 37 37 37 
37 37 41 36 37 40 37 37 40 37 37 40 38 40 37 37 
37 40 38 39 40 40 37 40 37 37 38 40 40 37 38 37 
37 38 51 70 67 52 42 52 65 70 73 81 86 90 93 98 
102 107 110 114 120 126 130 133 138 142 146 150 153 156 157 158 
159 158 156 156 156 156 156 192 191 189 185 181 177 173 167 159 154 151 146 141 139 136 134 130 
126 123 121 119 117 117 116 116 116 116 115 113 109 106 102 95 
84 74 58 38 37 39 44 37 41 37 38 39 37 37 37 37 
40 38 37 37 45 51 47 61 96 65 41 54 56 39 37 41 
43 38 39 71 80 71 53 40 37 37 37 37 40 41 37 40 
40 39 39 45 45 43 64 67 72 76 74 81 90 95 100 104 
107 112 115 119 126 131 134 138 141 147 152 154 156 159 160 161 
160 159 157 156 156 156 155 191 190 189 186 182 177 173 167 160 154 151 145 141 139 136 132 128 
124 121 120 118 117 118 118 119 119 117 114 112 109 105 99 90 
73 57 43 44 49 42 41 41 37 37 37 37 37 37 37 37 
37 41 39 40 37 60 106 81 177 112 52 61 47 45 40 54 
47 53 56 62 113 111 104 102 80 46 37 40 37 37 37 37 
37 37 42 37 40 55 61 70 74 80 80 87 95 102 107 113 
114 118 121 127 131 134 137 140 145 151 155 156 159 160 162 161 
161 160 158 157 157 156 156 191 189 189 185 182 177 172 167 160 155 151 144 140 137 134 130 126 
122 119 119 118 119 119 120 120 120 118 114 110 106 102 92 78 
56 47 43 50 51 45 38 40 37 37 39 40 37 37 37 37 
48 48 42 41 45 92 162 55 178 130 36 52 47 46 46 63 
68 55 41 56 117 136 132 131 123 109 88 68 50 38 40 37 
38 37 41 37 41 41 56 68 82 79 83 94 104 108 114 117 
120 125 128 131 134 136 140 144 149 154 157 159 161 161 163 163 
162 160 159 158 157 157 156 191 190 188 185 181 176 172 167 160 154 150 144 140 136 132 128 124 
122 119 119 121 122 122 122 121 119 117 113 110 103 95 82 59 
47 45 56 60 51 37 40 38 38 37 39 37 37 39 37 39 
55 61 42 37 36 74 139 201 200 56 37 37 37 52 59 63 
50 43 56 58 101 145 148 147 145 134 123 108 100 79 56 39 
37 37 37 38 37 37 39 52 58 73 98 109 113 119 120 122 
126 130 132 135 138 142 145 148 153 158 161 163 164 163 163 164 
163 161 159 159 158 158 156 191 190 188 184 180 176 172 167 160 154 151 145 139 135 131 127 122 
121 121 121 123 123 124 124 121 119 117 113 107 99 88 68 48 
54 57 66 57 40 38 37 41 41 53 64 38 37 37 37 44 
61 66 50 37 37 37 37 77 46 37 37 37 37 44 54 50 
56 60 67 57 81 143 154 159 159 146 138 130 126 106 87 66 
59 43 41 37 41 48 41 38 65 88 95 105 118 122 127 128 
129 132 135 137 141 145 150 155 159 162 163 164 166 167 167 166 
166 164 162 160 160 158 157 192 190 187 184 180 177 172 166 160 154 149 142 138 134 128 125 123 
122 122 122 124 124 125 124 122 120 115 110 104 93 76 54 58 
71 73 64 46 37 37 40 41 53 85 88 41 36 43 56 67 
68 54 50 37 37 37 37 37 37 37 37 37 37 37 42 49 
73 58 58 43 59 136 153 162 166 161 150 143 139 126 109 78 
76 76 65 47 41 45 41 55 64 82 91 102 112 116 119 122 
122 113 119 117 124 135 136 157 165 168 166 166 169 172 173 171 
169 166 163 161 160 158 157 193 189 187 184 180 176 171 165 160 154 147 141 136 132 127 125 124 
124 124 123 123 125 125 123 122 119 114 106 98 83 61 59 67 
74 73 59 41 39 41 41 46 95 113 94 39 38 40 56 68 
55 83 46 38 37 37 37 37 37 37 37 37 37 37 42 72 
65 67 77 80 58 124 149 154 158 155 156 148 138 132 120 98 
90 94 88 83 80 67 64 62 73 68 65 58 65 62 74 96 
112 124 135 147 154 160 166 170 174 175 174 173 173 174 175 175 
172 167 164 162 160 159 158 193 189 186 184 180 176 171 165 160 154 146 138 135 130 128 126 126 
125 125 125 124 125 124 123 122 117 110 101 87 64 64 67 73 
66 56 44 48 44 48 71 108 126 125 96 38 40 39 55 71 
66 55 40 37 37 37 37 37 37 37 37 37 37 39 41 72 
79 88 83 67 60 121 150 153 158 158 157 146 137 131 121 111 
118 117 110 104 104 110 107 100 100 101 107 105 118 113 108 135 
148 155 162 168 171 174 176 178 179 179 178 177 176 175 176 175 
173 168 164 162 160 158 157 192 188 186 183 179 175 169 164 159 153 146 138 134 130 128 126 126 
127 127 126 126 125 125 124 121 116 105 93 73 61 72 71 73 
62 45 42 52 65 100 122 130 137 130 100 42 48 47 72 89 
84 70 41 37 37 37 37 37 37 37 37 37 40 37 43 88 
90 72 76 80 69 130 154 156 157 157 152 138 131 127 125 115 
128 123 117 116 97 97 107 115 107 141 148 142 142 140 136 140 
153 159 160 163 164 176 182 183 182 179 179 178 178 178 177 176 
173 169 166 163 161 158 157 192 189 187 184 179 175 170 164 159 151 144 138 133 130 127 126 126 
127 127 127 126 124 123 121 118 109 98 81 60 67 75 80 69 
58 58 67 96 125 136 135 139 142 132 106 48 46 41 46 65 
80 73 46 37 37 37 37 37 37 37 37 37 37 37 56 105 
103 95 83 74 71 141 165 161 159 154 148 140 129 126 119 117 
125 113 100 85 89 107 117 125 126 113 112 120 167 168 173 173 
165 164 169 176 180 184 186 185 184 182 181 179 179 177 178 176 
174 171 169 164 162 159 158 194 191 188 184 179 174 170 165 159 151 143 137 134 131 127 126 127 
128 128 128 127 124 121 120 112 102 89 69 66 84 87 70 63 
62 78 81 117 134 143 145 145 144 136 122 58 44 37 42 51 
75 87 60 39 40 37 37 37 37 37 40 37 37 41 62 92 
84 74 71 77 80 156 169 166 162 156 152 138 127 118 114 115 
109 84 60 70 64 79 97 128 141 154 158 150 157 174 174 177 
182 180 185 186 187 189 188 188 187 185 183 183 181 180 179 176 
174 173 170 166 163 161 158 195 192 189 184 179 174 169 164 157 151 142 137 134 131 127 127 127 
129 128 126 127 123 121 114 105 95 79 61 84 91 79 64 61 
71 100 110 134 141 145 151 154 152 148 136 79 65 51 59 83 
91 93 89 73 55 39 37 39 51 56 59 42 38 44 72 99 
97 94 93 91 98 169 175 172 168 160 152 135 119 113 117 109 
91 72 69 75 78 74 65 79 122 141 160 176 171 163 181 181 
185 181 185 189 191 192 191 191 188 187 186 186 184 182 180 178 
176 173 171 168 165 163 160 195 191 187 184 179 173 167 161 156 149 142 138 133 129 127 127 128 
129 128 127 124 120 118 112 102 89 69 70 79 81 70 65 70 
90 109 132 142 142 153 159 159 156 160 153 107 55 52 61 80 
104 113 98 89 68 58 57 78 76 67 63 63 50 69 88 84 
83 71 68 79 125 172 176 176 170 163 150 130 119 120 113 100 
67 57 72 81 83 83 104 107 96 132 152 172 182 174 163 185 
188 183 189 192 192 194 193 192 190 190 188 187 186 183 181 180 
177 175 173 171 169 165 161 194 191 187 184 178 173 166 159 153 147 142 137 133 131 130 130 129 
129 128 126 122 120 115 106 98 85 76 91 86 67 59 67 88 
119 124 137 147 150 158 164 169 164 167 166 141 75 68 88 109 
109 103 93 93 86 95 95 89 96 75 71 76 88 96 82 77 
63 75 97 99 148 175 176 177 171 161 146 136 133 122 114 70 
78 77 86 96 110 107 110 106 105 98 147 172 177 182 185 164 
186 193 193 193 194 196 196 195 193 192 190 188 186 184 183 180 
177 176 174 172 169 165 162 194 190 187 183 177 172 164 158 151 145 141 138 133 133 133 132 130 
129 127 125 124 118 111 104 94 86 102 97 74 60 67 79 102 
125 135 138 150 160 167 170 175 177 174 179 163 108 71 78 70 
66 90 107 102 104 129 129 108 98 89 88 97 98 82 89 86 
79 75 78 128 170 174 175 176 171 158 152 149 142 130 97 81 
79 75 99 120 132 136 124 131 128 119 118 154 176 184 187 186 
188 195 194 195 196 197 197 196 194 193 191 189 186 185 183 181 
179 177 175 173 169 166 162 193 191 187 183 178 172 164 157 150 145 142 139 136 135 135 134 131 
129 127 125 125 121 116 107 95 103 104 77 58 67 88 91 122 
126 131 144 147 163 171 176 180 183 183 182 180 154 88 62 62 
82 104 108 108 110 116 127 109 104 98 97 108 103 86 67 56 
63 63 95 156 178 179 178 176 167 164 158 148 150 117 84 77 
68 70 78 109 128 136 143 143 149 130 115 148 148 165 184 188 
192 195 194 196 198 197 198 195 193 192 191 190 187 185 183 182 
180 178 175 173 170 167 163 196 192 188 184 179 172 164 157 150 147 144 140 137 137 136 136 134 
130 126 127 127 123 119 112 105 108 79 54 58 68 90 100 121 
125 131 141 148 156 166 179 183 186 186 189 188 176 140 88 79 
86 87 101 106 93 112 126 113 111 101 112 118 90 87 56 47 
72 84 147 171 180 181 179 177 174 165 155 146 114 86 87 83 
83 68 79 84 96 138 148 148 158 153 133 132 167 173 182 188 
193 196 196 197 198 198 196 195 193 192 192 191 188 186 184 182 
180 178 176 173 171 169 165 196 191 187 182 179 173 166 160 153 149 145 143 141 140 139 136 133 
130 130 131 131 126 121 112 108 87 54 61 61 67 91 108 116 
121 129 143 155 167 171 177 182 188 192 193 191 187 174 139 87 
67 77 78 75 75 91 96 111 95 82 79 89 81 84 66 54 
80 140 171 171 178 183 183 173 163 142 127 108 83 70 65 82 
100 104 101 96 79 92 133 152 162 160 159 143 171 181 183 187 
193 194 196 198 200 198 197 195 194 193 192 191 188 187 185 182 
180 179 177 174 172 170 167 196 191 187 184 179 174 168 160 154 151 147 143 143 143 143 140 137 
136 136 137 135 131 127 122 106 70 63 76 78 85 100 105 105 
115 134 140 151 163 170 172 183 189 194 194 195 194 187 173 142 
91 81 68 53 73 75 76 81 72 55 65 83 59 64 70 77 
134 165 170 177 186 178 173 159 156 124 114 103 115 127 123 111 
103 111 117 121 112 113 123 142 146 158 171 154 177 184 186 184 
194 196 197 198 200 199 197 195 195 194 192 191 189 188 186 183 
181 180 177 175 172 170 167 198 194 189 184 178 174 168 162 159 156 152 148 149 148 146 144 140 
142 142 140 138 136 136 125 84 65 84 100 103 108 113 112 108 
114 130 142 149 158 164 168 175 186 190 191 192 194 190 183 174 
149 105 77 59 62 69 61 50 74 55 63 71 73 78 108 135 
159 174 178 172 162 154 163 138 118 92 121 125 106 128 147 150 
128 97 107 125 128 132 136 153 163 164 177 170 181 188 189 192 
195 198 198 200 199 198 197 196 195 194 193 192 190 188 186 184 
182 179 177 176 173 170 167 199 194 188 185 180 175 170 164 161 159 156 154 153 155 153 148 145 
145 144 144 145 146 143 113 69 77 142 176 154 121 123 120 116 
115 128 140 149 151 157 166 172 176 180 184 190 193 190 185 181 
174 159 135 97 82 82 80 81 89 93 110 130 152 174 179 176 
170 159 151 143 111 80 85 118 121 116 144 153 133 133 145 147 
137 134 104 129 143 142 153 145 167 178 179 182 187 190 193 193 
196 198 199 199 199 198 198 196 195 193 193 193 190 188 186 184 
182 180 179 176 174 171 167 200 194 189 186 182 178 174 166 161 160 159 158 158 158 157 153 149 
148 148 152 153 154 142 99 64 118 157 130 123 125 120 115 116 
117 118 129 139 148 158 162 169 175 177 180 184 186 184 181 182 
180 175 169 162 155 168 181 183 184 189 180 177 178 177 173 149 
124 106 77 82 86 88 67 85 134 141 126 148 141 131 149 144 
144 141 133 125 150 156 162 156 162 180 184 186 190 193 193 195 
198 201 201 200 199 199 197 197 197 194 193 192 191 188 187 185 
184 182 180 177 175 171 167 201 197 193 188 185 182 176 169 163 162 161 159 160 160 161 157 157 
158 159 159 157 155 138 95 74 83 125 129 133 120 118 118 116 
116 120 124 121 126 134 146 145 165 177 167 178 184 176 180 185 
185 184 177 179 177 178 174 174 167 164 165 155 144 111 86 86 
78 82 94 96 97 92 109 88 108 154 147 137 153 137 136 146 
144 149 152 151 146 161 167 171 176 182 185 187 192 194 194 197 
199 201 202 200 199 198 198 198 198 196 195 192 190 189 187 186 
186 183 181 178 176 172 167 201 196 192 188 185 181 177 170 165 165 165 165 166 166 164 162 163 
164 165 166 161 156 139 109 84 81 89 98 107 110 115 117 117 
121 121 139 136 139 137 141 164 152 169 142 173 163 150 159 183 
170 183 183 188 184 182 154 159 128 130 111 98 75 89 86 74 
67 74 118 131 141 114 109 111 104 150 165 143 162 151 125 140 
149 153 157 159 148 154 172 176 178 183 187 190 193 194 196 199 
200 200 201 200 200 198 198 197 197 196 195 192 191 189 187 187 
186 185 182 179 176 173 168 201 198 194 190 186 181 178 173 168 167 168 169 170 170 166 165 168 
171 168 168 164 156 147 131 116 112 115 127 134 145 168 175 155 
174 146 174 186 171 169 151 158 158 137 143 158 138 121 112 140 
132 143 158 151 152 117 113 106 108 100 106 109 84 64 90 98 
76 83 100 133 147 149 137 126 102 135 160 157 162 161 151 129 
140 151 157 159 167 160 173 176 181 183 187 191 194 195 196 199 
200 200 200 201 201 198 198 198 197 197 195 191 188 188 188 187 
186 185 182 179 177 174 168 202 200 196 190 186 181 179 176 171 171 171 172 172 172 173 171 174 
174 175 175 169 160 151 146 164 179 179 191 180 180 173 175 195 
189 167 204 180 147 134 160 161 129 112 116 147 147 130 86 115 
120 117 137 108 111 138 122 111 122 137 105 121 130 110 100 126 
144 105 85 124 146 159 153 144 132 126 152 158 158 165 156 151 
136 148 163 165 167 174 178 182 183 185 188 191 194 195 197 200 
200 200 201 202 202 200 199 198 197 197 194 192 188 188 188 187 
186 184 182 179 177 174 168 204 200 196 192 188 185 182 178 175 175 176 177 178 179 177 176 180 
180 182 178 175 171 168 169 182 193 182 180 163 170 181 185 182 
195 180 177 166 136 140 153 165 132 114 121 155 159 166 129 125 
134 136 153 174 103 149 143 132 143 161 129 124 137 136 128 120 
150 139 99 88 147 156 163 162 139 134 137 154 154 160 164 160 
151 151 164 170 176 175 179 183 186 188 190 191 193 198 200 201 
200 200 202 202 201 200 200 198 197 196 193 191 189 188 188 187 
185 183 181 179 176 174 169 205 201 198 193 190 187 185 182 179 178 178 180 181 183 181 181 184 
183 184 182 179 177 176 176 183 192 186 173 165 165 174 166 160 
167 167 165 166 155 155 165 154 134 128 134 158 167 167 143 131 
138 151 162 162 160 143 165 161 125 152 130 138 129 143 146 102 
137 143 132 109 120 153 160 165 152 128 161 154 157 165 162 161 
163 154 161 175 177 180 181 187 188 188 190 192 195 199 201 202 
202 202 202 202 202 201 200 198 196 195 193 191 189 188 188 187 
185 183 182 179 177 173 168 206 202 198 194 191 188 186 183 181 181 180 182 183 184 183 183 185 
185 187 186 181 182 180 179 184 188 187 191 186 189 189 182 182 
180 173 160 153 152 156 168 157 135 136 160 171 162 160 151 145 
157 155 173 156 167 134 165 168 141 155 140 140 119 141 151 126 
123 145 143 142 140 152 161 167 163 153 159 158 161 164 171 176 
174 170 172 176 179 181 180 186 189 192 194 194 195 199 201 203 
203 203 203 204 203 201 201 199 197 197 194 191 189 188 188 186 
185 184 182 180 177 173 168 207 204 199 195 192 187 187 185 183 182 181 183 186 188 185 185 186 
187 188 187 187 186 185 187 188 187 188 188 184 185 188 187 179 
180 181 171 164 158 146 147 151 142 138 155 161 151 147 153 153 
167 156 175 171 159 150 150 161 147 165 144 137 138 133 142 141 
123 149 147 152 148 161 156 161 164 155 162 166 170 172 167 170 
172 172 172 176 180 182 185 188 190 192 195 194 197 201 203 204 
204 203 202 204 204 202 201 201 199 197 194 191 190 189 188 186 
186 184 181 179 176 173 168 209 206 201 197 194 188 187 186 185 184 185 186 186 186 187 186 187 
190 190 190 188 188 188 187 186 185 186 188 191 190 183 182 182 
181 176 174 170 167 173 170 164 153 151 149 156 149 147 154 156 
161 144 164 170 156 158 141 161 162 166 158 125 147 146 151 155 
144 154 159 165 157 167 170 173 172 169 171 164 167 173 178 175 
176 179 182 183 184 186 187 191 194 196 197 198 200 203 204 205 
205 204 203 205 204 202 201 200 198 196 195 193 191 190 188 187 
186 185 182 179 176 173 168 210 207 203 199 196 191 188 187 185 185 186 188 190 190 189 189 191 
191 192 193 194 190 188 188 187 185 183 191 195 194 194 188 187 
190 182 179 172 166 167 168 164 162 157 157 157 146 149 163 165 
169 154 159 160 164 157 131 155 160 167 159 142 141 147 146 157 
157 156 165 166 167 172 171 169 166 167 164 163 170 173 176 177 
180 182 177 180 186 191 194 195 197 198 201 202 203 205 206 206 
206 206 206 206 204 203 202 199 197 197 197 194 191 190 188 188 
186 184 182 179 176 173 168 211 208 205 202 197 192 189 188 186 186 188 190 192 193 193 193 192 
193 194 195 195 193 194 195 194 193 189 192 194 195 194 193 190 
193 190 186 184 177 168 175 170 171 167 167 163 158 159 162 160 
157 162 161 163 165 163 159 155 158 162 163 157 138 157 154 163 
163 160 167 167 165 169 169 165 164 168 172 177 177 176 179 183 
184 183 187 189 192 192 196 199 200 202 202 203 203 204 206 207 
207 207 206 206 204 203 201 199 197 197 196 194 193 191 189 187 
187 183 181 179 177 174 169 211 209 206 201 197 193 190 189 188 189 190 192 194 194 195 194 193 
194 196 197 198 198 196 197 198 197 198 198 198 197 196 193 195 
194 188 190 189 184 183 183 177 169 163 163 162 162 162 167 164 
166 167 169 165 167 166 162 156 162 168 163 160 152 159 161 165 
166 161 160 161 160 161 165 168 173 171 171 170 176 179 179 181 
187 191 191 192 192 195 197 200 201 201 201 204 205 204 205 206 
207 206 206 205 203 203 201 200 198 197 196 193 193 191 189 188 
187 185 181 179 177 174 169 212 210 207 203 199 195 192 189 190 191 192 193 194 196 197 196 195 
195 198 198 202 202 199 200 202 205 204 202 203 202 199 196 194 
194 195 189 191 186 189 189 186 178 179 183 173 163 161 165 167 
164 170 171 169 167 168 171 169 167 167 165 163 158 160 159 162 
160 162 163 165 167 168 169 171 172 173 181 184 185 185 189 190 
196 195 197 197 200 198 199 201 201 203 204 205 207 206 206 208 
207 206 205 204 204 203 202 201 198 197 195 193 192 190 189 188 
187 185 181 180 177 174 169 212 211 209 205 200 197 193 190 189 191 193 195 197 198 199 198 198 
199 199 201 203 204 205 203 205 204 205 204 201 204 201 201 200 
200 197 194 194 190 190 189 188 184 182 180 177 171 172 172 172 
170 164 159 158 163 167 166 172 168 164 165 162 157 159 161 164 
165 164 161 163 161 167 175 173 172 169 169 179 188 193 194 198 
197 201 199 198 199 201 201 201 202 205 206 207 208 208 208 207 
206 206 206 203 204 203 202 202 199 197 195 193 192 191 189 187 
186 183 182 180 177 174 170 213 212 209 205 202 199 194 191 190 192 195 197 197 198 198 197 198 
201 201 202 205 204 206 206 206 206 209 210 206 205 206 206 200 
198 199 196 193 193 193 196 193 194 190 182 181 177 175 176 174 
175 175 173 174 175 177 175 168 165 166 160 160 158 156 160 161 
161 165 168 168 169 171 174 182 183 185 189 192 194 192 192 192 
194 197 199 200 202 201 201 201 205 207 207 207 208 207 208 207 
207 207 206 204 204 203 202 201 199 198 195 192 192 191 189 187 
185 183 180 179 177 174 169 214 211 209 205 202 199 197 192 190 193 195 197 198 198 198 199 199 
200 202 203 205 206 206 206 205 206 208 209 207 205 206 204 203 
198 200 199 194 191 195 196 196 191 189 185 185 184 183 181 180 
183 181 176 178 180 180 180 173 171 165 164 165 164 164 169 170 
172 171 168 170 174 182 182 183 184 186 183 188 193 194 200 201 
201 200 201 201 203 204 204 204 207 209 208 208 208 208 208 208 
208 207 206 205 203 203 201 200 198 198 195 193 192 192 189 187 
184 183 180 179 177 174 170 215 212 208 205 202 199 198 194 192 194 196 198 198 198 199 200 201 
204 204 205 207 207 209 210 209 210 210 209 207 209 206 204 201 
200 202 201 197 196 196 194 194 194 194 191 187 187 185 185 189 
187 188 186 180 178 171 166 168 171 166 165 166 166 170 176 182 
179 177 179 182 185 190 192 191 193 192 191 196 201 199 197 200 
201 204 205 205 206 207 209 207 208 207 209 209 208 208 208 207 
207 207 205 204 203 203 201 199 198 196 193 193 193 192 187 186 
184 182 181 179 176 174 169 216 212 209 205 203 201 199 196 194 195 196 197 198 199 200 201 202 
203 205 206 207 209 210 211 212 212 211 210 209 208 209 204 201 
198 197 195 195 196 194 196 196 197 199 198 197 196 193 193 190 
187 189 189 182 185 187 187 180 178 181 183 179 172 171 176 177 
184 183 182 184 185 185 190 193 196 198 198 196 196 201 204 204 
205 205 206 208 208 207 208 208 208 207 209 209 209 208 208 208 
208 206 204 204 203 201 201 200 199 197 194 192 191 190 188 185 
185 182 181 179 176 173 167 217 214 211 207 204 202 201 199 196 196 197 198 198 199 201 203 203 
205 206 206 206 208 211 212 213 212 211 211 210 209 208 204 202 
199 198 199 198 196 196 195 193 193 194 195 192 189 190 191 192 
193 190 188 189 187 185 182 182 177 177 175 177 185 186 187 191 
193 196 197 194 195 196 200 203 198 194 194 197 200 201 201 203 
204 206 206 208 209 209 209 209 209 208 209 210 210 208 209 208 
207 205 204 203 203 202 200 200 199 197 194 191 191 189 188 186 
185 182 180 178 175 172 166 217 215 212 210 207 206 203 201 199 197 197 198 197 199 202 203 204 
206 205 206 207 210 210 212 213 213 214 213 213 212 209 209 206 
203 202 201 200 199 198 197 199 194 194 197 195 193 193 196 192 
194 195 195 195 191 190 192 193 189 189 191 188 180 178 181 186 
192 194 197 197 198 199 202 202 202 203 205 205 204 204 206 205 
208 210 207 207 210 211 210 209 210 209 209 209 210 209 209 208 
207 206 204 202 202 201 200 199 198 197 194 191 190 189 188 186 
185 181 180 178 175 173 167 217 215 212 210 208 207 204 202 200 199 198 198 199 200 202 202 204 
205 206 206 207 209 209 212 213 213 214 214 213 211 209 212 210 
206 207 206 207 204 200 198 197 192 190 196 197 197 196 198 198 
197 199 196 199 199 199 197 194 191 191 191 191 192 190 188 190 
194 199 201 203 201 198 199 203 204 205 204 203 202 205 206 207 
210 210 210 210 211 212 212 211 210 211 210 209 207 209 207 207 
207 206 204 202 201 199 199 199 197 195 194 192 189 189 188 187 
185 182 179 177 175 173 167 218 216 213 211 209 207 206 202 201 199 199 200 200 203 203 202 203 
204 205 207 209 209 210 213 213 213 213 215 215 213 213 213 212 
212 210 206 207 207 207 205 199 199 198 200 199 195 197 201 198 
199 199 201 202 200 204 200 196 195 195 196 194 195 192 196 199 
197 196 197 197 198 197 202 201 204 207 208 206 204 207 209 211 
210 210 209 211 212 213 212 212 212 213 210 209 207 207 208 207 
208 206 203 201 201 199 199 198 197 195 192 190 189 189 188 187 
185 183 179 177 175 172 167 218 216 214 211 210 208 205 203 201 199 199 199 200 202 203 203 203 
203 205 207 209 210 210 212 213 212 214 215 216 215 215 214 213 
213 213 212 209 207 208 210 208 203 199 197 199 199 197 196 196 
200 199 197 198 199 199 200 201 201 200 196 198 195 194 193 195 
197 201 201 201 200 201 202 203 206 207 206 205 208 209 210 209 
210 210 212 211 212 213 212 213 213 211 212 211 208 207 207 208 
206 205 204 202 201 200 199 198 198 196 192 189 189 188 187 186 
183 182 179 177 175 171 165 218 216 215 213 210 208 206 204 201 200 199 199 201 203 203 202 203 
203 206 208 209 209 212 212 213 212 214 215 216 216 215 214 215 
214 212 214 212 212 210 209 204 203 202 203 206 201 203 200 200 
201 205 203 203 203 202 204 201 200 198 198 198 198 197 198 195 
199 198 198 198 197 199 202 206 207 207 209 210 209 212 209 209 
210 211 213 213 213 214 213 214 214 213 210 210 208 210 210 207 
206 205 203 202 200 199 199 197 196 196 193 189 188 188 187 185 
183 181 180 179 175 170 164 218 217 216 214 211 210 208 204 202 201 200 199 201 202 202 202 202 
205 207 209 209 211 212 211 212 213 215 215 216 217 216 216 215 
214 214 214 213 212 213 211 210 207 205 206 209 206 201 204 202 
201 202 203 204 203 202 203 204 204 201 202 200 199 202 199 202 
201 204 205 205 203 205 207 207 210 210 212 212 212 213 211 211 
212 213 212 213 213 215 215 216 215 213 211 209 209 209 209 207 
206 205 204 202 200 200 199 198 196 194 191 189 187 187 186 186 
183 182 180 179 175 169 163 218 217 216 215 212 210 208 205 202 201 199 199 200 202 201 202 202 
205 207 208 209 210 211 211 212 213 215 215 216 217 216 216 215 
216 214 214 215 215 214 213 212 212 211 210 208 208 208 208 208 
207 205 205 205 206 209 208 204 203 202 203 204 205 203 202 203 
205 205 209 206 206 206 209 210 211 212 213 214 215 213 214 214 
213 213 213 214 214 216 216 217 215 212 212 212 210 210 208 207 
206 204 204 202 201 200 199 199 196 193 191 189 187 186 186 184 
184 181 180 178 174 168 162 218 218 216 215 213 211 209 205 203 202 200 199 200 202 201 202 204 
205 206 208 207 208 209 210 211 212 214 215 215 216 216 215 216 
216 215 215 215 215 215 215 214 214 212 210 209 209 208 208 208 
207 205 207 205 203 202 205 204 203 204 206 204 205 205 206 206 
205 208 207 207 209 209 211 213 213 214 211 214 214 214 214 213 
213 213 214 215 215 218 216 216 211 211 214 213 211 210 208 206 
205 203 203 202 200 199 199 198 194 192 190 189 188 185 184 182 
181 179 179 177 172 166 160 218 218 217 215 214 212 210 206 203 202 201 199 199 199 200 202 204 
205 206 207 206 206 208 210 212 211 212 215 216 215 215 215 216 
216 216 215 215 216 215 215 214 214 213 212 212 212 211 211 210 
210 208 207 208 207 209 207 206 208 206 206 210 209 208 205 205 
206 206 208 208 211 210 211 214 214 215 213 215 215 215 215 215 
214 216 216 216 215 216 217 215 214 211 213 212 210 209 207 207 
205 201 201 200 199 199 199 199 194 192 189 187 185 185 182 181 
180 178 177 175 170 165 159 218 218 218 216 213 212 211 206 203 203 201 199 198 199 200 202 203 
204 206 206 206 207 208 209 211 211 212 213 213 215 216 215 215 
216 215 215 216 215 216 215 214 215 215 213 212 214 213 213 210 
212 212 210 211 210 209 208 208 206 209 209 208 210 206 205 208 
208 207 208 213 212 213 213 212 214 215 214 218 216 216 217 216 
219 216 216 216 217 216 217 216 213 212 212 211 208 207 208 207 
206 200 198 198 198 197 195 195 192 190 188 187 185 183 183 181 
179 177 175 174 169 164 159 217 217 217 216 214 212 210 207 203 202 201 199 197 198 199 201 203 
205 205 205 206 206 208 209 210 210 211 212 212 213 216 216 216 
216 216 217 217 216 216 216 216 216 215 214 214 214 213 212 213 
213 213 214 212 212 212 211 210 211 210 212 210 211 208 209 206 
210 211 212 213 212 214 213 210 214 215 216 218 215 217 217 218 
221 215 216 217 216 215 217 215 213 212 210 209 209 207 207 206 
204 202 199 197 197 197 194 193 192 189 188 187 186 183 182 180 
178 176 174 171 168 163 158 217 218 217 216 214 212 210 206 203 201 199 198 197 197 198 201 204 
205 204 204 206 205 206 207 208 209 210 211 213 214 216 216 215 
216 216 216 217 217 216 216 216 215 215 215 214 215 214 214 214 
213 213 214 212 213 212 211 212 212 213 211 211 211 211 211 209 
210 212 213 213 213 214 215 214 215 215 217 216 218 218 217 218 
218 217 214 216 215 215 217 215 213 212 211 208 206 207 206 204 
204 203 199 196 196 195 192 191 191 189 188 187 186 182 181 180 
178 175 173 170 168 162 157 219 219 218 217 215 213 210 206 202 199 197 197 197 197 198 199 202 
203 203 204 205 205 205 206 206 207 208 210 214 214 215 216 216 
216 216 217 217 217 216 217 217 216 215 215 216 215 214 214 214 
215 216 216 214 213 213 214 213 212 211 210 210 209 211 211 212 
214 212 212 213 213 214 216 217 216 216 217 216 216 218 219 218 
215 215 215 216 215 215 215 213 211 213 209 207 206 205 203 203 
205 202 201 198 197 194 191 190 190 189 187 185 184 182 181 180 
177 174 171 169 166 160 156 220 221 220 219 216 213 210 205 200 197 196 197 196 196 197 199 201 
203 203 204 205 205 205 206 204 205 206 210 213 213 215 216 216 
214 214 215 216 216 217 219 216 216 214 217 217 216 216 215 214 
214 214 215 214 214 212 212 213 214 213 209 211 212 213 215 213 
214 213 214 214 215 215 216 217 217 216 218 216 215 216 217 216 
216 216 216 214 215 216 215 214 212 211 208 205 206 204 204 205 
204 202 200 199 198 194 192 191 190 188 186 183 182 181 180 179 
177 173 169 168 164 158 154 220 221 221 220 217 214 210 205 200 197 196 197 197 197 198 199 201 
201 201 202 203 203 203 204 203 203 206 209 212 214 213 214 214 
212 213 215 214 218 217 215 214 215 216 217 216 213 216 217 215 
216 217 216 215 215 212 214 215 216 214 212 213 213 214 214 214 
215 215 215 215 215 216 216 218 215 217 218 217 214 214 215 216 
217 217 216 215 216 216 216 213 211 213 210 207 206 205 203 202 
201 201 198 197 197 193 190 189 189 188 187 183 181 180 180 178 
176 172 170 166 162 157 152 